# xmcd
#
# Track frame offsets: 
#        150
#        20110
#        38607
#        60586
#        79461
#        98243
#        119893
#        146257
#        165780
#        187467
#        207003
#        228471
#        249096
#        265304
#        285701
#        303154
#
# Disc length: 4298 seconds
#
# Revision: 0
# Processed by: cddbd v1.5.2PL0 Copyright (c) Steve Scherf et al.
# Submitted via: ExactAudioCopyFreeDBPlugin 1.0
#
DISCID=df10c810
DTITLE=Various Artist - 超級女聲 2 CD2
DYEAR=2017
DGENRE=Pop
TTITLE0=01. 阿密特|張惠妹 - 彩虹
TTITLE1=02. 蘇芮 - 再回首
TTITLE2=03. 辛曉琪 - 無名指的幸福
TTITLE3=04. 王芷蕾 - 明天你是否依然愛我
TTITLE4=05. 林慧萍 - 貪圖
TTITLE5=06. 林凡 - 夜太黑
TTITLE6=07. 葉蒨文 - 離開情人的日子
TTITLE7=08. 江美琪 - 再一次也好
TTITLE8=09. 順子 - 不再想念
TTITLE9=10. 郭采潔 - 不過問
TTITLE10=11. 那英 - 如今
TTITLE11=12. 蔡淳佳 - 有一天我會
TTITLE12=13. 曾淑勤 - 茉莉花的日子
TTITLE13=14. 戴佩妮 - 防空洞
TTITLE14=15. 王心凌 - 我很好那麼你呢?
TTITLE15=16. 劉虹嬅 - 清晨五點
EXTD=
EXTT0=
EXTT1=
EXTT2=
EXTT3=
EXTT4=
EXTT5=
EXTT6=
EXTT7=
EXTT8=
EXTT9=
EXTT10=
EXTT11=
EXTT12=
EXTT13=
EXTT14=
EXTT15=
PLAYORDER=
